<svg width="717" height="134" viewBox="0 0 717 134" fill="none" xmlns="http://www.w3.org/2000/svg">
<path d="M0 130.564V2.901H41.8388C49.1469 2.901 56.0257 4.17763 62.4842 6.73088C68.9427 9.28413 74.7892 13.0502 80.0236 18.0381C85.2581 23.0261 89.4328 29.6828 92.5388 38.0082C95.6447 46.3336 97.1977 55.8536 97.1977 66.5499C97.1977 78.2219 95.6173 88.3711 92.4474 97.0066C89.2775 105.642 84.9566 112.299 79.4755 116.977C73.9945 121.655 68.0566 125.092 61.6621 127.281C55.2675 129.469 48.2974 130.564 40.7426 130.564H0ZM21.5589 110.685H40.3772C51.0927 110.685 59.4057 107.466 65.3161 101.019C71.2265 94.5719 74.1772 83.0822 74.1772 66.5499C74.1772 51.7137 71.2265 40.7165 65.3161 33.54C59.4057 26.3636 51.4581 22.7799 41.4734 22.7799H21.5589V110.685Z" fill="black"/>
<path d="M256.775 130.564V2.901H278.483V59.802H278.851L326.866 2.901H353.174L305.526 59.0725L358.325 130.564H332.201L290.441 74.5744H290.073L278.483 89.1644V130.564H256.775Z" fill="black"/>
<path d="M448.656 129.717C442.31 132.213 435.47 133.465 428.144 133.465C420.818 133.465 413.95 132.186 407.54 129.626C401.13 127.066 395.269 123.2 389.958 118.016C384.646 112.833 380.462 105.767 377.412 96.8082C374.363 87.8495 372.833 77.4557 372.833 65.6358C372.833 44.7932 378.264 28.6402 389.133 17.186C400.003 5.7317 413.007 0 428.144 0C443.281 0 456.073 5.75913 466.879 17.2774C477.685 28.7956 483.088 44.976 483.088 65.8186C483.088 77.6385 481.558 88.0323 478.509 96.991C475.459 105.95 471.302 113.016 466.055 118.199C460.808 123.382 455.002 127.222 448.656 129.717ZM404.518 101.836C410.626 109.634 418.501 113.537 428.144 113.537C437.786 113.537 445.634 109.67 451.678 101.927C457.722 94.1846 460.744 82.1544 460.744 65.8186C460.744 50.9454 457.63 39.61 451.403 31.8123C445.176 24.0146 437.42 20.1112 428.144 20.1112C418.867 20.1112 410.928 23.9781 404.701 31.7209C398.474 39.4637 395.36 50.7626 395.36 65.6358C395.36 81.9716 398.41 94.0383 404.518 101.836Z" fill="black"/>
<path d="M538.467 130.564V22.7799H500.496V2.901H597.694V22.7799H559.905V130.564H538.467Z" fill="black"/>
<path d="M716.654 130.564L670.106 2.901H652.948L606.4 130.564L661.704 115.051L716.637 130.564H716.654ZM635.42 103.528L661.686 31.1901L687.952 103.528L661.668 96.1685L635.42 103.528Z" fill="black"/>
<path d="M227.762 130.564L181.214 2.901H164.056L117.508 130.564L172.812 115.051L227.744 130.564H227.762ZM146.528 103.528L172.794 31.1901L199.06 103.528L172.776 96.1685L146.528 103.528Z" fill="black"/>
</svg>
